<svg xmlns="http://www.w3.org/2000/svg" viewBox="0 0 468.19 105.89"><defs><style>.cls-1{fill:#20409a;}.cls-2{fill:#f79021;}.cls-3{fill:#fff;}</style></defs><g id="Layer_2" data-name="Layer 2"><g id="Layer_1-2" data-name="Layer 1"><path class="cls-1" d="M12.15,105.74l0-9.55-4.73,8H6.54L1.8,96.25v9.49H0V92.63H1.54L7,101.84l5.4-9.21h1.53l0,13.11Z"></path><path class="cls-1" d="M33.16,102.46h-7l-1.44,3.28H22.83l5.93-13.11h1.86l5.95,13.11h-2Zm-.65-1.5-2.83-6.42L26.85,101Z"></path><path class="cls-1" d="M49.72,99.92l-2.4,2.43v3.39H45.45V92.63h1.87V100l7.12-7.32h2.13L51,98.53l6,7.21H54.74Z"></path><path class="cls-1" d="M75.35,104.11v1.63H65.84V92.63h9.25v1.63H67.71v4h6.58v1.59H67.71v4.23Z"></path><path class="cls-1" d="M102.3,101.21v4.53h-1.85v-4.57l-5.21-8.54h2l4.2,6.91,4.21-6.91h1.86Z"></path><path class="cls-1" d="M114.7,99.19a7,7,0,1,1,7,6.7A6.67,6.67,0,0,1,114.7,99.19Zm12.06,0a5.1,5.1,0,1,0-5.08,5A4.93,4.93,0,0,0,126.76,99.19Z"></path><path class="cls-1" d="M138.31,100.08V92.63h1.87V100c0,2.9,1.33,4.21,3.69,4.21s3.71-1.31,3.71-4.21V92.63h1.82v7.45c0,3.81-2.08,5.81-5.55,5.81S138.31,103.89,138.31,100.08Z"></path><path class="cls-1" d="M168.93,105.74l-2.83-4c-.26,0-.54,0-.82,0H162v4h-1.88V92.63h5.12c3.4,0,5.46,1.72,5.46,4.57a4.14,4.14,0,0,1-2.88,4.14l3.11,4.4Zm-.06-8.54c0-1.87-1.25-2.94-3.65-2.94H162v5.9h3.18C167.62,100.16,168.87,99.07,168.87,97.2Z"></path><path class="cls-1" d="M203.25,97.2c0,2.85-2.06,4.57-5.47,4.57h-3.23v4h-1.88V92.63h5.11C201.19,92.63,203.25,94.35,203.25,97.2Zm-1.87,0c0-1.87-1.25-2.94-3.65-2.94h-3.18v5.88h3.18C200.13,100.14,201.38,99.07,201.38,97.2Z"></path><path class="cls-1" d="M220.63,102.46h-7l-1.44,3.28h-1.93l5.94-13.11h1.85l6,13.11h-2ZM220,101l-2.83-6.42L214.32,101Z"></path><path class="cls-1" d="M231.66,99.19a6.63,6.63,0,0,1,7-6.71,6.47,6.47,0,0,1,5,2l-1.22,1.18a4.88,4.88,0,0,0-3.69-1.55,5,5,0,1,0,0,10.07,4.87,4.87,0,0,0,3.69-1.57l1.22,1.18a6.5,6.5,0,0,1-5,2.06A6.63,6.63,0,0,1,231.66,99.19Z"></path><path class="cls-1" d="M257.46,99.92l-2.39,2.43v3.39H253.2V92.63h1.87V100l7.11-7.32h2.14l-5.6,5.9,5.95,7.21h-2.19Z"></path><path class="cls-1" d="M281.42,102.46h-7L273,105.74h-1.93L277,92.63h1.86l5.95,13.11h-2Zm-.66-1.5-2.83-6.42L275.1,101Z"></path><path class="cls-1" d="M302.59,99.11h1.8v5.11a7.7,7.7,0,0,1-5,1.67,6.63,6.63,0,0,1-7-6.7c0-3.88,2.95-6.71,7-6.71a6.54,6.54,0,0,1,5,2l-1.16,1.17a5.18,5.18,0,0,0-3.8-1.52,5,5,0,1,0,0,10.07,5.51,5.51,0,0,0,3.07-.84Z"></path><path class="cls-1" d="M314.9,92.63h1.87v13.11H314.9Z"></path><path class="cls-1" d="M338.9,92.63v13.11h-1.53L329.5,96v9.78h-1.87V92.63h1.54l7.86,9.78V92.63Z"></path><path class="cls-1" d="M358.85,99.11h1.8v5.11a7.73,7.73,0,0,1-5,1.67,6.71,6.71,0,1,1,0-13.41,6.57,6.57,0,0,1,5,2l-1.16,1.17a5.2,5.2,0,0,0-3.8-1.52,5,5,0,1,0,0,10.07,5.55,5.55,0,0,0,3.07-.84Z"></path><path class="cls-1" d="M381.92,104.24l.69-1.46a6.76,6.76,0,0,0,4.33,1.52c2.26,0,3.24-.88,3.24-2,0-3.21-7.94-1.18-7.94-6,0-2,1.57-3.75,5-3.75a7.71,7.71,0,0,1,4.21,1.16l-.62,1.5a6.76,6.76,0,0,0-3.59-1.07c-2.23,0-3.19.94-3.19,2.08,0,3.2,7.94,1.2,7.94,6,0,2-1.61,3.73-5.07,3.73A7.74,7.74,0,0,1,381.92,104.24Z"></path><path class="cls-1" d="M413,92.63v13.11h-1.87V99.9h-7.53v5.84h-1.88V92.63h1.88v5.64h7.53V92.63Z"></path><path class="cls-1" d="M423.81,92.63h1.87v13.11h-1.87Z"></path><path class="cls-1" d="M447.82,92.63v13.11h-1.54L438.42,96v9.78h-1.88V92.63h1.54l7.86,9.78V92.63Z"></path><path class="cls-1" d="M468.19,104.11v1.63h-9.51V92.63h9.25v1.63h-7.38v4h6.57v1.59h-6.57v4.23Z"></path><path class="cls-1" d="M158.74,50.28a24,24,0,0,1-38.81,5.57c-.61-.64-1.18-1.31-1.73-2a25.42,25.42,0,0,1-5.46-15.76,26.06,26.06,0,0,1,1.2-7.85,25.69,25.69,0,0,1,6-10.12,23.78,23.78,0,0,1,17.18-7.49c10.28,0,18.87,5.29,22.56,15.77h10c-4-15.77-16.58-25.76-32.55-25.76A33.71,33.71,0,0,0,112.94,13a37.12,37.12,0,0,0-8.57,15.12h0a35.47,35.47,0,0,0,3.52,27.94,37.22,37.22,0,0,0,5,6.87,33.33,33.33,0,0,0,24.17,10.39c14.94,0,26.92-9.11,31.87-22.89.44-1.22.85-2.47,1.18-3.77h-9.89A25.91,25.91,0,0,1,158.74,50.28Z"></path><path class="cls-1" d="M48.23,26.3c0-.24,0-.48,0-.72h0C47.9,14.14,40.33,2.93,25.56,2.93H0v37.7H0v32.2H10.18V49.56H25.56C40.64,49.56,48.23,38,48.23,26.3Zm-10,.85c-.31,6.33-4.49,12.43-12.65,12.43H10.18V35.7h0V13.11H25.56c8.49,0,12.68,6.6,12.68,13.29q0,.38,0,.75"></path><path class="cls-1" d="M85.31,25.29,76.09,2H68.7l-9,22.58L40.64,72.83H51.53c2.19-5.79,5.69-14.18,8.39-20.57H85l4,9.85,4.37,10.72h10.78L98.55,58.7Zm-10.57-.73,6.34,18.21H63.71l6.53-18.34,2.26-6.32,2.24,6.45"></path><polygon class="cls-1" points="201.53 42.46 197.52 37.68 224.18 3.03 211.5 3.03 187.14 35.38 187.14 40.48 190.14 44.12 197.22 52.7 213.8 72.83 226.98 72.83 211.87 54.8 201.53 42.46"></polygon><polygon class="cls-1" points="175.25 44.53 175.25 50.73 175.25 72.83 185.24 72.83 185.24 51.44 185.24 44.46 185.24 3.03 175.25 3.03 175.25 44.53"></polygon><polygon class="cls-1" points="237.26 13.12 254.81 13.12 268.82 13.12 268.82 3.03 263.59 3.03 227.18 3.03 227.18 33.61 227.18 57.6 227.18 72.83 237.26 72.83 237.26 59.76 237.26 42.97 265.22 42.97 265.22 32.79 237.26 32.79 237.26 27.75 237.26 13.12"></polygon><path class="cls-1" d="M464.79,64.5,448.37,23.06,440,2h-7.39L421.33,30.57,405.22,71.21,385.6,47.86h0l-.47-.56-.62-.73c12-2.1,18.08-11.49,18.08-21.37,0-11.09-7.59-22.27-22.77-22.27H354.36V20.55h0V72.83h10v-59h0v-.75h15.48c8.49,0,12.68,6.1,12.68,12.09s-4.19,12.18-12.68,12.18H368v4.79l7.39,8.9,1.81,2.18h0L393.5,72.83h22c2.2-5.79,5.69-14.18,8.39-20.57h25.06L455.76,69l1.55,3.79h10.78ZM427.65,42.77l5.75-16.14,3-8.52,2.45,7L445,42.77Z"></path><path class="cls-2" d="M328.45,61.77a21.09,21.09,0,0,0-.61,6.38,14.49,14.49,0,0,0,.68,2h0A37,37,0,0,0,334.86,66s-2.05-2.37-2-8c.36-7.11-3.06-15-9.94-18.75,0,.15-.06.31-.1.46C328.77,45.24,329.82,54.29,328.45,61.77Z"></path><path class="cls-2" d="M337.12,53.14c.89,5.5,3.15,7.46,3.15,7.46h0a37.41,37.41,0,0,0,3.57-5.23s-2.66-1.39-4.52-6.51c-2-7.41-8.86-12.56-16.43-14.11,0,.08,0,.16,0,.24C330.38,38.4,335.92,44.82,337.12,53.14Z"></path><path class="cls-2" d="M317.67,66.76c-2.7,4.41-2.49,7.41-2.49,7.41h0A39.77,39.77,0,0,0,321.42,73s-.89-2.87.86-7.57c3-7.05,4.33-15.59-.89-22.21l0,0C324,51.15,322.66,60.35,317.67,66.76Z"></path><path class="cls-2" d="M346.37,33a7.49,7.49,0,0,0,2.07.31h0A39.67,39.67,0,0,0,347.26,27s-2.85.89-8-1.71c-6.82-3.06-15.28-2.72-21.22,2.09l.38.28C327.9,23.14,338.35,27,346.37,33Z"></path><path class="cls-2" d="M342.34,20.5a8.26,8.26,0,0,0,2.11-.59,37.37,37.37,0,0,0-4.18-6.34,7.39,7.39,0,0,1-1.89,1c-9.41-.48-20,2.17-24.89,10.9.32.06.62.13.93.22C321.5,18.49,333,17.72,342.34,20.5Z"></path><path class="cls-2" d="M281.71,43c-4.42-2.26-7.42-2.05-7.42-2.05h0a40.21,40.21,0,0,0,1.18,6.24,14.87,14.87,0,0,1,7.48.29c6.9,4.67,15.48,3.78,22.52-.19l-.19-.12C297.63,50.15,288.5,48.08,281.71,43Z"></path><path class="cls-2" d="M286.36,53.5c-5.24-.59-8.08.75-8.08.75a36.92,36.92,0,0,0,4.17,6.34s2.38-2.05,7.41-2.69c8,1,15.21-3.13,19.94-9.17l-.34,0C303.44,54.6,294.62,55.47,286.36,53.5Z"></path><path class="cls-2" d="M333.19,9.44a6.92,6.92,0,0,0,1.69-1.26h0a36.89,36.89,0,0,0-5.25-3.59s-1.37,2.66-6.84,4.58a20.63,20.63,0,0,0-13.16,16.29l.17,0C312.07,14.94,324.64,11.92,333.19,9.44Z"></path><path class="cls-2" d="M294.51,62.23c-4.69,1.51-6.65,3.77-6.65,3.77h0a37.51,37.51,0,0,0,5.24,3.57,14.15,14.15,0,0,1,5.54-5c7.91-2.21,14.34-7.88,15.34-16l-.3.08C310.18,56.12,302.54,61.66,294.51,62.23Z"></path><path class="cls-2" d="M305.48,66.48c-4.33,3.17-5.37,6.15-5.37,6.15h0a37.22,37.22,0,0,0,7.44,1.54s.23-3.16,3.62-7.1c5.05-5.55,9.3-13.15,7.06-20.45l-.4.28C318.7,55.19,312.1,62.67,305.48,66.48Z"></path><polygon class="cls-2" points="346.9 48.35 346.9 48.35 346.9 48.35 346.9 48.35"></polygon><path class="cls-2" d="M346.39,40.3c-6.68-6.54-15.65-12.67-25.34-9.88.14.2.26.41.39.62,7.63-.08,15,4.29,19.52,10.87a20.69,20.69,0,0,0,4,5.47,12.88,12.88,0,0,0,1.92,1,37.22,37.22,0,0,0,1.54-7.44A7.15,7.15,0,0,1,346.39,40.3Z"></path><path class="cls-2" d="M294.35,12.66A19.58,19.58,0,0,0,294.89,6a12.23,12.23,0,0,0-.69-2h0a37.31,37.31,0,0,0-6.34,4.17A12.39,12.39,0,0,1,289,9.93a22,22,0,0,1,1.14,6.22c-.48,7.34,3.41,14.73,9.57,19.17,0-.31.1-.62.17-.93A24.39,24.39,0,0,1,294.35,12.66Z"></path><path class="cls-2" d="M286.06,20.69c-1.35-5.14-3.61-7.12-3.61-7.12h0a38.6,38.6,0,0,0-3.57,5.26s2.66,1.39,5,5.87c2.86,6.6,8.06,13.2,16,14.81,0-.14,0-.29-.07-.43C292.39,36.2,286.9,28.45,286.06,20.69Z"></path><path class="cls-2" d="M282.09,31.27a23.17,23.17,0,0,0-4.35-4.52,11.38,11.38,0,0,0-1.91-.91,36.53,36.53,0,0,0-1.54,7.44s3.13.23,7.19,3.49A25.16,25.16,0,0,0,297,44.57a35.66,35.66,0,0,0,4.84-.56l-.3-.41C293.41,43.66,285.81,38.23,282.09,31.27Z"></path><polygon class="cls-2" points="307.55 0.02 307.55 0.02 307.55 0.02 307.55 0.02"></polygon><path class="cls-2" d="M304.53,7.82a25.08,25.08,0,0,0,2.92-5.77,12.33,12.33,0,0,0,.1-2A37.52,37.52,0,0,0,301.3,1.2s.9,2.86-1.17,7.91c-2.43,6.58-3.15,15.21,1.27,21.73l.2-.33C298.9,23.41,299.23,14.31,304.53,7.82Z"></path><polygon class="cls-2" points="322.62 1.54 322.62 1.54 322.62 1.54 322.62 1.54"></polygon><path class="cls-2" d="M321.56,3.45a9.3,9.3,0,0,0,1.06-1.91A37.22,37.22,0,0,0,315.18,0a12.93,12.93,0,0,1-.4,2.07,20.42,20.42,0,0,1-4.16,5.24c-6.11,4.67-7.92,13.12-5.83,20,.25-.16.5-.31.76-.45C305,16.77,313.7,8.81,321.56,3.45Z"></path><path class="cls-3" d="M321.37,43.24l0,0,0-.06S321.36,43.21,321.37,43.24Z"></path><polygon class="cls-3" points="304.95 43.26 304.95 43.26 304.95 43.26 304.95 43.26"></polygon><path class="cls-2" d="M311.36,29.74a7.35,7.35,0,1,0,7.35,7.34A7.34,7.34,0,0,0,311.36,29.74Z"></path></g></g></svg>